/* XPM */
static char *result[] = {
/* columns rows colors chars-per-pixel */
"50 50 71 1 ",
"  c #010000",
". c #0B0000",
"X c #130000",
"o c #1B0000",
"O c #230100",
"+ c #2B0100",
"@ c #330000",
"# c #3C0000",
"$ c #440000",
"% c #4C0100",
"& c #530100",
"* c #5C0100",
"= c #640200",
"- c #6B0200",
"; c #730200",
": c #7E0100",
"> c #850100",
", c #8C0100",
"< c #910101",
"1 c #9D0102",
"2 c #A40103",
"3 c #AC0104",
"4 c #B40004",
"5 c #BC0006",
"6 c #C40005",
"7 c #CD0006",
"8 c #D30007",
"9 c #DD0008",
"0 c #E40009",
"q c #EE0009",
"w c #FE0302",
"e c #FE0905",
"r c #F3000A",
"t c #FE000B",
"y c #FF0F0D",
"u c #FF110E",
"i c #FF1613",
"p c #FF2623",
"a c #FF2927",
"s c #FF2D2B",
"d c #FF312E",
"f c #FF3331",
"g c #FF3E3B",
"h c #FF4543",
"j c #FF4C4A",
"k c #FE5351",
"l c #FF5A58",
"z c #FF615F",
"x c #FF6361",
"c c #FF6866",
"v c #FF6D6B",
"b c #FF7472",
"n c #FF7C7B",
"m c #FE8E8C",
"M c #FE9797",
"N c #FE9C9B",
"B c #FEA5A3",
"V c #FEABAA",
"C c #FEB0AF",
"Z c #FEB8B7",
"A c #FEBCBB",
"S c #FEC5C4",
"D c #FECACA",
"F c #FFD0CF",
"G c #FED4D4",
"H c #FFDFDE",
"J c #FEE4E4",
"K c #FEEAEB",
"L c #FEF5F5",
"P c #FEF7F8",
"I c #FEFEFE",
/* pixels */
"                                                  ",
"                                                  ",
"                                                  ",
"                     . . ..                       ",
"                . . ... ......                    ",
"              . ....X.XX.X.XX.... .               ",
"            .....XXXXXoXoooXXXXX....              ",
"            ...XXoooOOOOOOOoOooXXX.....           ",
"          ....XXoOOO+++@+++++OOOooXX...           ",
"         ...XXoOO++@@#######@@+OOOoXX.. .         ",
"         ..XooO++###$%%%&%%%%$$@++OOoXX..         ",
"        ..XXoO+@#$%&**=*=***&&%$$@@OOoXX..        ",
"       ..XXoO+@#%&**===----;-=*&%$#@+ooXX..       ",
"       ..XoO+@$%&*=-,2332,>;;;-=*&$#@+OoX..       ",
"      ..XoO+##%*==>8tttttr072>;--*&%#@+ooX..      ",
"      .XXo+@#%*=-2rttwtwwttttr61;==&$#@OoX...     ",
"      .XoO+#%&=-2ttwwwwwwwwwtttt03-*&$@+OoX.      ",
"     ..Xo+@#%*->rtwewwiywwwwewwwtt5=*%#@OoX...    ",
"    ...oo+#$&=;7twwwfSKJAMzuwwwwwtt<&%$@+oX..     ",
"    ..XoO@#&*-<rtwwdLIIIIIIKBjuwwwt6=*%#@OXX. .   ",
"    ..XoO@$&=-4twwwSIPIIIPPIIIJgwwt6-*%$@OXX.     ",
"    ..Xo+#%&-;9twwhIIPJJPIIIPPIvwet6-=&$@OoX..    ",
"    ..XoO#%*->rtewnIIFuedbZIIPIvwwt7;-&$#+oX..    ",
"    ..oO+#%*-<rwwwVIIDwwwwwhKIIvwet8;-&%@+oX..    ",
"    ..oO+#%*-<rtweDIIDwwwewyKIIxwwr7:-&$#+oX.     ",
"   ..Xoo+#%=-<twwwDIIAewwewvIPIjwwt6;-*$@+oXX..   ",
"    ..XO+#%*-,ttwwAIIZwwwewBIILiwwt6--&$@+oX..    ",
"    .XXo+#%*->rewwNIIHkuwwuKIIGewwt3-=&$@OoX.     ",
"   ..XXo+@%&=:qtewcIPIIKZxbIPImwetr,-*%#@Oo..     ",
"     .XoO@$&=-8twweSIPPIIIIPIPpwwt0:-*%#+OXX. .   ",
"    ..XoO@$%==2ttwwiZIIIIIIIIxwwwt4;-&$#+oXX.     ",
"     ..Xo+#$&=;8twwwwlCKPLLFzwwwtq>-*%#@OoX..     ",
"     .XXoO@$%*=>rtwwwwwiasiewwwtt2--&$#+OX..      ",
"     ..XoO+@$&=-,qttwwwwwwwwwwtt5--*%#@OOX...     ",
"      ..Xo+@#%&-->7ttetwwwwtett6;-*&$@+OoX..      ",
"      ..XXo+@#%&=-;17rttttttt92;=*&$#+OoX..       ",
"      ...XoO+@#%&*=-->134432,-==*%$#+OoXX..       ",
"       ...XoO+@#$%&=---=-=-===*&%$#@+ooX..        ",
"        ..XXoO+@#$$%&*======*&&$##++ooX...        ",
"         ..XXoOO@@#$%%%&&&%%%$##@++ooX..          ",
"          ..XXooOO+@###$#$###@@++OoXX...          ",
"           ...XXoOOOO+++@+@+++OoooXX... .         ",
"            ...XXXooooOOOOOOOoooXX...             ",
"           .  ....XXoooooooooXXXX....             ",
"              . ...X.X.XXXX.X..X..                ",
"                 .. ...........                   ",
"                       . . ..                     ",
"                    . .                           ",
"                                                  ",
"                                                  "
};
