/* XPM */
static char *_ce52dbf0202426d9a5a826df89ea52078fXrDjMYQT7Om20[] = {
/* columns rows colors chars-per-pixel */
"100 50 152 2 ",
"   c #000000",
".  c #0C0405",
"X  c #0E0608",
"o  c #130605",
"O  c #190704",
"+  c #1C0906",
"@  c #130709",
"#  c #14080B",
"$  c #1D0A0B",
"%  c #1D0C11",
"&  c #230B07",
"*  c #280D07",
"=  c #250D0C",
"-  c #2D0F0B",
";  c #2E100E",
":  c #34110A",
">  c #3B130D",
",  c #240E14",
"<  c #280E10",
"1  c #250F18",
"2  c #2E1113",
"3  c #27101A",
"4  c #2E121C",
"5  c #321213",
"6  c #3C1413",
"7  c #3F1914",
"8  c #35151C",
"9  c #3A161C",
"0  c #3E1A1D",
"q  c #341521",
"w  c #381722",
"e  c #3B1826",
"r  c #3E1929",
"t  c #42150D",
"y  c #49170D",
"u  c #411614",
"i  c #431914",
"p  c #4E1C15",
"a  c #411719",
"s  c #44191D",
"d  c #491A1D",
"f  c #531C11",
"g  c #501D18",
"h  c #572116",
"j  c #65291D",
"k  c #411923",
"l  c #491B24",
"z  c #421B2A",
"x  c #491D2B",
"c  c #521F24",
"v  c #4A1E31",
"b  c #432525",
"n  c #4F212A",
"m  c #522026",
"M  c #52232D",
"N  c #5A262D",
"B  c #4F2133",
"V  c #542433",
"C  c #582737",
"Z  c #5F2930",
"A  c #552539",
"S  c #582739",
"D  c #59283B",
"F  c #6A2F24",
"G  c #612F28",
"H  c #6C3026",
"J  c #65332D",
"K  c #6D322C",
"L  c #713226",
"P  c #74362A",
"I  c #7D3C2F",
"U  c #632D32",
"Y  c #6E3333",
"T  c #6D3C37",
"R  c #6D353D",
"E  c #703435",
"W  c #7D3D34",
"Q  c #7C3D35",
"!  c #7E3E36",
"~  c #713538",
"^  c #72373D",
"/  c #77393D",
"(  c #7E3F3B",
")  c #7F403F",
"_  c #5F2D42",
"`  c #653147",
"'  c #6F3741",
"]  c #693D4C",
"[  c #703846",
"{  c #7D3E43",
"}  c #7C3D45",
"|  c #71394C",
" . c #723A51",
".. c #7F4041",
"X. c #7E435C",
"o. c #813F32",
"O. c #824032",
"+. c #854235",
"@. c #83433B",
"#. c #83443C",
"$. c #85453E",
"%. c #8C4739",
"&. c #904B3D",
"*. c #924B3D",
"=. c #814245",
"-. c #814246",
";. c #8E4B43",
":. c #8A474E",
">. c #8B494E",
",. c #924D41",
"<. c #924D42",
"1. c #964E43",
"2. c #924E44",
"3. c #934F48",
"4. c #934F4B",
"5. c #974F49",
"6. c #944F4A",
"7. c #995042",
"8. c #975049",
"9. c #93504C",
"0. c #98504C",
"q. c #914D52",
"w. c #914E52",
"e. c #945150",
"r. c #955153",
"t. c #965252",
"y. c #955254",
"u. c #995253",
"i. c #95525B",
"p. c #A15647",
"a. c #A4594A",
"s. c #A2584E",
"d. c #A35A51",
"f. c #AE6151",
"g. c #8A4C66",
"h. c #8E4F69",
"j. c #955663",
"k. c #975672",
"l. c #A65D63",
"z. c #A35D66",
"x. c #A65E6B",
"c. c #A5606D",
"v. c #AC636A",
"b. c #B0666D",
"n. c #A76172",
"m. c #A86175",
"M. c #A7637A",
"N. c #A9637B",
"B. c #B36872",
"V. c #AA6481",
"C. c #AF6987",
"Z. c #B36B89",
/* pixels */
"                                                                                                                      o 2 ; ; ; - ; - ; - ; ; - ; < ; ; < ; ; ; ; 5 < 5 5 2 5 < < < = % @ @ . .         ",
"        . . o o O O O O O + + + + $ + + + + + + $ + + + + $ $ + + $ + $ $ $ $ $ $ & & .         . o o o o o O .       O > > t > > 6 u u u 6 6 7 u u u i 7 7 a a u a u a u a a a 6 9 6 2 , = + . .       ",
"      o O * : > i F +.*.*.,.,.,.2.,.2.1.2.5.2.3.3.1.3.3.3.3.3.3.5.3.8.4.4.5.3.e.e.e.y.b         J @.@.@.$.#.$.Y .     2 ;.2.2.2.3.3.3.3.1.9.9.3.4.9.5.w.8.y.e.e.q.q.u.y.y.y.y.y.q.=.U k 6 5 = @ o       ",
"    . + * : t P a.7.o.L H H H F H H H F H H H K K K K K K K Y K K Y Y Y Y Y Y Y Y Y Y 0       . G W W W W W W J .     # F K K K K K K K K K K Y Y Y P Y Y Y Y Y E Y Y Y Y ~ Y ~ / :.l.d.U 9 5 , # . .   ",
"    . * : t %.p.j y t > > > > > > > : > : > > > 6 : > > 6 : 6 6 > 6 6 6 6 6 6 6 6 6 9 2         - > : 6 > 6 > -       . : > > 5 > 6 : 6 6 > 6 6 6 5 6 6 6 6 6 6 6 6 8 6 9 6 9 7 s d c } b.^ a 5 = @ .   ",
"    . - t O.p.f t > : * * * & & & * = & = = & = = = = = = = = = = = = = = = = , = = = $         o o O O . o o .         & = = = = = = - & = = = = = = = = = = = , = = = = < < < < 6 s d R B.U 9 2 $ . . ",
"    . : h f.j t > * & O o o o o o o o o o o O o O o o o o O o o o o . o o o o o o @ @ O             . $               . o O o o O @ o O o o O o o O o o @ o o @ @ o o o @ . @ + $ , 5 0 d =.z.s 8 = @ . ",
"    o > I *.t > * & o . . .   .   .   . .     .   .   . .   .   .   .   . .   . .   .               . #                     .       .   .     . .     .   . .     . . .   . . . o @ , 5 l N B.N 8 < @ . ",
"    o > *.o.t : * o .                                                                                 .                                                                         . o $ 3 9 l v.R 0 < $ . ",
"    o > *.I t - & o .                                                                               . .                                                                           . # < 9 l v.R 0 3 $ X ",
"    o t *.o.t : O o                                                                                   .                                                                           . @ < 9 l c.R s < # X ",
"    O t *.o.> - & . .                                                                                                                                                             . O , 5 l c.' s 4 $ X ",
"    O > 7.W > - O . .                                                                                                                                                             . @ , 8 l c.' w 4 $ . ",
"    O > *.W t : & o                                                                                 .                                                                             . @ = 8 l c.R s 5 $ @ ",
"    o t 7.W > : + . .                                                                                                                                                             . X , 8 l x.[ s 4 $ X ",
"    O > *.) > : O .                                                                                                                                                               . @ , 9 l x.' w 4 $ X ",
"    o > 1.W > : + o                                                                                                                                                               . o , 8 l c.[ s 4 $ @ ",
"    O t 5.W > 2 + . .                                                                                                                                                             . @ , 8 l c.[ w 5 % . ",
"    O u 0.W > : + o .                                                                                                                                                             . # , 8 l n.[ k 4 $ @ ",
"    o > 8.W 6 : + o                                                                                                                                                               . # , 8 l c.[ k 5 % . ",
"    O 6 1.( 6 : + .                                                                                                                                                               . @ , 9 l M.[ w 4 % X ",
"    o t 8.W 6 ; + o .                                                                                                                                                             . @ , 8 x n.[ k 4 $ X ",
"    @ u 5.W u ; $ .                                                                                                                                                                 @ , 8 l m.| k 8 $ X ",
"    O u 8.W t ; + o .                                                                                                                                                           . . @ , 8 x M.' k 4 % X ",
"    O 6 5.W 6 ; $ . .                                                                                                                                                             . # 1 q x m.' k 4 $ . ",
"    O u 0.( u ; $ o                                                                                                                                                               . X 1 q l m.[ k 4 % @ ",
"    o 7 0.( 6 ; + . .                                                                                                                                                             . # , w l M.| k 4 $ X ",
"    o u 0.( i ; $ . .                                                                                                                                                             . X , 9 x M.| k 4 % X ",
"    O 7 6.( u : $ o .                                                                                                                                                             . # 1 8 x m.| r 4 % X ",
"    @ u u.( 6 2 + o                                                                                                                                                               . # , w x M.| r 8 % X ",
"    O u 0.} u 5 $ o                                                                                                                                                               . # , w x m.| k 4 % X ",
"    @ 7 0.} 6 : $ . .                                                                                                                                                             . # , w x N.| k 4 % X ",
"    @ u u.o.6 5 $ . .                                                                                                                                                             X # 1 e v M. .z 4 % X ",
"    O u u.{ u ; & o                                                                                                                                                                 # 1 w z N. .z 4 % X ",
"    O a u.{ u 5 $ . .                                                                                                                                                             X # 1 w x N.] z 4 % X ",
"    @ u u.=.6 5 $ o                                                                                                                                                               . # 1 w v V. .z 4 % X ",
"    @ u u...u 2 $ .                                                                                                                                                               X # 3 q v V. .z 4 % X ",
"    @ a u...a 5 $ o .                                                                                                                                                             X # % q v V. .z 4 % X ",
"    @ i u.=.9 5 $ o .                                                                                                                                                             X # 1 e v V. .r q % X ",
"    @ a u.=.a 2 = . .                                                                                                                                                             X # 1 e v V. .r 4 % X ",
"    @ u u.=.s 5 = @ .                                                                                                                                                           . X % 3 r B C. .r 4 % X ",
"    @ u >.q.d 9 2 $ X .   . .       .         . .     .     .         .   . .                                           .   .     .   .             .     .   .   . .   .   .   X # % q r A C.` r 3 % X ",
"    o 9 U b.m d 5 2 $ O X . o . @ . . X X . X . X . X X @ . o X X X @ @ X X X . X .                                     . . . X . . . X @ o X X X X X X X X . . X X X X X X X X % % q e v  .Z.B e 1 # X ",
"    . 5 l d.>.d s 8 2 < = % % $ $ , % $ $ % $ , % $ % % % % % % % % % % % % % , % @                                     . $ % % % % % % % % % % % % % , % % , % % % % % % % 1 1 3 q r v _ C.X.r q % #   ",
"    . < 9 m v.:.c a a 9 8 8 5 8 8 5 8 8 8 8 8 8 8 8 8 8 8 8 8 8 8 8 8 8 q 8 8 q q %                                       2 8 8 8 8 8 8 8 8 8 8 q 8 8 q 8 q q 8 w q q q q w q e r r v _ V.k.v e 1 % X X ",
"    . = 5 9 V d.c.{ Z M m m n m m M l M n n n n M n n n B n B n n V B M B B B V B 4         . 5 7 7 7 i 7 i ;           X z M n n M n M B n B M V B V B B M V B B V A B A B A A _  .h.C.g.v r 3 % #     ",
"      # = 2 9 l R i.c.c.l.x.c.x.x.x.x.x.c.c.x.n.v.n.n.n.n.n.m.m.m.n.m.m.M.M.M.m.V...        # 3.s.s.s.d.s.d.T           $ j.n.c.n.n.v.m.n.M.n.m.m.m.m.m.N.N.N.N.N.N.N.N.N.V.N.V.V.V.h._ r e 3 % X X     ",
"      . @ $ , 2 9 a d m m M M M N M M N V M N V V V N V V V C S A A A C C C C C S r         X i p p p p g g 5           o M V V Z V V V V V V C A C C S C C C S S S D D D D D D v v r e q 3 % # X       ",
"          . . . . o @ @ @ @ @ @ @ @ @ # @ @ @ # @ @ # # # # # @ @ @ @ # @ # # # # @           = - - - - ; ; $           . 8 8 9 e q q q q w 9 q w w w w w w w w q q q q e q q q q q 3 1 % # X X         ",
"                                                                                                              . X @       % , , % 1 1 1 , , , , , , , , , , , 1 1 1 1 1 1 1 1 1 1 % % # X X X           "
};
