/* XPM */
static char *_9d7524b388d4eeee28d83494f375962q5mzRZcQwbGEexsD[] = {
/* columns rows colors chars-per-pixel */
"50 50 91 1 ",
"  c #010100",
". c #0B0B00",
"X c #141400",
"o c #1C1C00",
"O c #232300",
"+ c #2C2C00",
"@ c #333400",
"# c #3C3C00",
"$ c #3F4000",
"% c #434300",
"& c #4C4C00",
"* c #545400",
"= c #585700",
"- c #575800",
"; c #5B5B00",
": c #5F6000",
"> c #646400",
", c #676800",
"< c #6A6B00",
"1 c #737300",
"2 c #7D7C00",
"3 c #817F00",
"4 c #848300",
"5 c #898700",
"6 c #8D8C00",
"7 c #918E00",
"8 c #959200",
"9 c #9E9A00",
"0 c #A39E00",
"q c #A6A200",
"w c #AAA500",
"e c #B1AA00",
"r c #BDB500",
"t c #C5BB00",
"y c #C9BF00",
"u c #CBC100",
"i c #D1C600",
"p c #D6CB00",
"a c #D8CB00",
"s c #DED200",
"d c #E3D600",
"f c #E6D900",
"g c #EBDD00",
"h c #EEE000",
"j c #F4E600",
"k c #F7E900",
"l c #FAEC00",
"z c #FFF400",
"x c #FDFC01",
"c c #FCFF0E",
"v c #FDFE10",
"b c #FCFE15",
"n c #FCFE23",
"m c #FDFE28",
"M c #FCFF2B",
"N c #FCFE31",
"B c #FCFE35",
"V c #FDFE36",
"C c #FCFE3C",
"Z c #FCFE43",
"A c #FDFE4F",
"S c #FCFE56",
"D c #FCFE5A",
"F c #FDFE62",
"G c #FCFF73",
"H c #FCFE7D",
"J c #FDFE84",
"K c #FDFE86",
"L c #FDFF8B",
"P c #FDFE8D",
"I c #FDFF91",
"U c #FDFF94",
"Y c #FDFF97",
"T c #FDFE9F",
"R c #FDFFA3",
"E c #FDFFA5",
"W c #FDFFAD",
"Q c #FDFFB4",
"! c #FDFFC1",
"~ c #FDFFC5",
"^ c #FDFEC6",
"/ c #FDFFD5",
"( c #FDFFDA",
") c #FDFEDF",
"_ c #FDFFE3",
"` c #FDFFE6",
"' c #FDFEEA",
"] c #FDFFF3",
"[ c #FDFEF4",
"{ c #FEFEF9",
"} c #FDFEFF",
/* pixels */
"                                                  ",
"                                                  ",
"                                                  ",
"                                                  ",
"                                                  ",
"                                                  ",
"                                                  ",
"                     .. ... .                     ",
"                  . ..........    .               ",
"              . ...XXXXXoXXXXXX..                 ",
"               ..XXXooOOOOOooXoXX.. .             ",
"             ..XXooO+++++@++++OoXXX..             ",
"           ....Xo+++@#%%%%%##@++OoXX...           ",
"            .XXo++@%&&*=--=*&&%#@+OoX..           ",
"          ..XXO+@%&*->>,<<<,>;*%%@+ooX..          ",
"          ..Xo+@$&-;18wew0641<>;&%#+OoX..         ",
"          .XX+@%&:<7ukzlllgar82<;*%#+oo..         ",
"        ...XO+#&;<9gzxxxxxxzzjpe3>*%@+oX..        ",
"         .Xo+@%->7gzxxxcxxxxxxzld6;&#@OX..        ",
"        ..XO+#&:1izxxBE!QPDnxxxxza1*%@+X...       ",
"        ..X+@%=<9jxxN/}}}}](TSbxxj7-&#+oX.        ",
"        ..X+#&:<tzxxR}{}}}}}}}Kxzl9>*$@oX..       ",
"       ...o+#&:2pzxm_}^GKW_}{}Txxl0,=%@OX..       ",
"        .Xo+#*>5dzxA{}UxxxmL]}Txxlq<-%@Oo..       ",
"        .Xo+%*>6gxxF}}UxxxxZ[}Uxxl0<-%@OXX.       ",
"       ..Xo+%*>7gxxF}}UxxxxL}}Lxxk0<;%@OX..       ",
"        .Xo+#*>4gzxD}}Tcxxc!}}Dxxh8>-%@OX..       ",
"       ..XX+#&:2axxB'}'QLZS'}`mxzs4>*$+oX.        ",
"        ..o+@&;1uzxxU}}}}]`{}Uxxzt1>&#+oX.        ",
"        ..XO@%*>0lxxcP'}}}}}^nxxj0<-%@+oX.        ",
"        ..Xo+#&;1yzxxxCKEWEHnxxzu1>*#+OX..        ",
"         .XX+@#*>4alxxxxxxxxxzzd6>*%@+oX..        ",
"         ..XO+@&->4yjzxxxxzxxzd8<:&#+OXX.         ",
"          .XoO+#&->19yfjllljdt5>;&$@+oX..         ",
"         ...Xo++#&*->1480q083<:=&%@+oX..          ",
"           ..XX++#%&*>>>,<,>:=*&#++oX...          ",
"           ..XXo++@#%&**===*&&%@++ooX..           ",
"             ..XXO++@@#%%%$$@@++OoX..  .          ",
"             ...XXoo++++++++++ooXX...             ",
"               ...XXoXoOOOOOooXXX...              ",
"                .....XXXXoXXXXX...                ",
"                   ....X...... .                  ",
"                      .  ...                      ",
"                                                  ",
"                                                  ",
"                                                  ",
"                                                  ",
"                                                  ",
"                                                  ",
"                                                  "
};
