/* XPM */
static char *result[] = {
/* columns rows colors chars-per-pixel */
"50 50 2 1 ",
"  c #1453FF",
". c None",
/* pixels */
"..................................................",
"..................................................",
"............    ....................    ..........",
"............    ....................    ..........",
"............    ....................    ..........",
"............    ....................    ..........",
"............    ....................    ..........",
"............    ....................    ..........",
"................    ............    ..............",
"................    ............    ..............",
"................    ............    ..............",
"................    ............    ..............",
"................    ............    ..............",
"................    ............     .............",
"............                            ..........",
"............                            ..........",
"............                            ..........",
"............                            ..........",
"............                            ..........",
"........        ....            ....        ......",
"........        ....            ....        ......",
"........        ....            ....        ......",
"........        ....            ....        ......",
"........        ....            ....        ......",
"........        ....            ....        ......",
"....                                            ..",
"....                                            ..",
"....                                            ..",
"....                                            ..",
"....                                            ..",
"....                                            ..",
"....    ....                            ....    ..",
"....    ....                            ....    ..",
"....    ....                            ....    ..",
"....    ....                            ....    ..",
"....    ....                            ....    ..",
"....    ....    ....................    ....    ..",
"....    ....    ....................    ....    ..",
"....    ....    ....................    ....    ..",
"....    ....    ....................    ....    ..",
"....    ....    ....................    ....    ..",
"....    ....    ....................    ....    ..",
"................        ....        ..............",
"................        ....        ..............",
"................        ....        ..............",
"................        ....        ..............",
"................        ....        ..............",
"................        ....        ..............",
"..................................................",
".................................................."
};
