/* XPM */
static char *_649954699083[] = {
/* columns rows colors chars-per-pixel */
"50 49 80 1 ",
"  c #000000",
". c #010905",
"X c #03060A",
"o c #020E09",
"O c #03120B",
"+ c #03180F",
"@ c #050C14",
"# c #060E19",
"$ c #051314",
"% c #041D12",
"& c #07131B",
"* c #08161E",
"= c #071A1C",
"- c #081E1F",
"; c #052216",
": c #06251B",
"> c #08221F",
", c #062C1C",
"< c #07301F",
"1 c #081522",
"2 c #091E20",
"3 c #0A1728",
"4 c #0A1C2A",
"5 c #0D1F34",
"6 c #082220",
"7 c #083321",
"8 c #0A3B26",
"9 c #0B3E29",
"0 c #0E2136",
"q c #0F253E",
"w c #10253E",
"e c #0C432D",
"r c #0C492F",
"t c #0E4731",
"y c #0E4832",
"u c #0F5135",
"i c #115237",
"p c #115238",
"a c #11583B",
"s c #112741",
"d c #132C46",
"f c #142E49",
"g c #173455",
"h c #19365B",
"j c #1C3C65",
"k c #1D3E68",
"l c #166344",
"z c #186546",
"x c #176947",
"c c #196648",
"v c #1A6D4B",
"b c #1B714D",
"n c #1E7A54",
"m c #217D57",
"M c #227F59",
"N c #1F416D",
"B c #20436E",
"V c #224675",
"C c #234877",
"Z c #254B7D",
"A c #23825B",
"S c #268D62",
"D c #289366",
"F c #279568",
"G c #299669",
"H c #2A9A6C",
"J c #2D9F70",
"K c #2EA373",
"L c #30A776",
"P c #32AB79",
"I c #254D81",
"U c #285085",
"Y c #2D578F",
"T c #2D5790",
"R c #2E5A95",
"E c #305E9B",
"W c #32609F",
"Q c #3463A3",
"! c #3566A9",
"~ c #3769AD",
/* pixels */
"  X@1qhNVVVVVVCCCCVVVCVVVCCCVCVVCCCCVVCCVCNg51@X  ",
" X#5kQQRYYYYYTTTYYYYYYYYYYTTYYYYTTYYYYYYYYRQQj4#X ",
"X#5YQjq434446656443444444444444464443444334sk!I5@X",
"X4UEs1&$=;::66>>:,>>,>::::::::::>::>>,::;=$#1fQZ3X",
"&h!f1@%,yvAAAAAAAAAAAAAAAAAAAAAAAAAAAAAmcr;%@1g!f#",
"3UI3@%8nPGAmmmmmmmmmmmmmMmmmMMmmmmmmmmmAGPn7%$3YI1",
"0Qh1$7SJu,;%%%%;%;%;+%+%%%%%%%%%;%%%%%%;7aKA,$1jE5",
"qQf*;vKe;O...  ..  ......  ... .. .. ...O;rLz;*hW5",
"qQf=7Kl;o                                O:bG7=gQ5",
"qQf2yLe+                                  +yLe2gE5",
"qQf6iK7o                                  O9Lt2gQ5",
"qQf-iK7o                                  o8Lt2gQ5",
"qQf-pK7o                                  O8Ky2gW5",
"sQf2uK7o                                  O8Ly2hQ5",
"qQf6iK7o                                  o8Ly2gW5",
"qQf6iK7.                                  o8Ky2gQ5",
"wQf-iK<o                                  o8Ly2gQ5",
"wQf>iL<o                                  O8Ky2gW5",
"wQf-iK<o                                  o8Ky2hQ5",
"qQd>iK<o                                  o8Kt2gW5",
"qQf6iK<o                                  o8Ky2gQ5",
"qQf6iK7o                                  o8Ky2gW5",
"wQf>iK<o                                  O8Ly2gQ5",
"qQf-iK7o                                  O8Ly2gW5",
"qQf>iK7.                                  O8Ky2gW5",
"sQf2iK7o                                  o8Ky2gQ5",
"qQf6iK7o                                  o8Ky2gW5",
"qQf6iK<o                                  o9Ly2gQ5",
"wQf-iK<o                                  O8Lt3gW5",
"wQf-iK<o                                  o8Lt2gQ5",
"qQf>iK7o                                  o9Lt1gW0",
"sQd-iK<o                                  o8Ly2gQ5",
"qQf6iK<.                                  O8Ky2gQ5",
"qQf6iK7o                                  o8Ky2gQ5",
"qQf>iK7.                                  O8Ky2gW5",
"qQf-iK7o                                  o8Ly2gQ5",
"qQf-iK7o                                  O8Ky2hW5",
"sQf2uK7o                                  O8Ly2gQ5",
"qQf6iK7O                                  +9Ly2gQ5",
"qQf6tLr+                                 .%yL92gW5",
"wQf=<Hb:O                                O,mD<=gQ5",
"wQg&;lPu:%o...........o ...............o+,aPa%1hW5",
"4Ej1$<nPx8,,:;:,,;:::,;,,;:::::,::;,:,:<8vPb,$1VT3",
"1CT5$%,lKKGFFFFDFFFDFFFFFFFFFFGGFFFFFDDHLHl,$&5EN1",
"#s!k3@$;7izxxlzlzzzcxccccccccccczcccccczi7;$#3BQw@",
"X1j~j1XoO++++++++%%->66666666666>6666666>=&10B~h&X",
"XX3jI4X   .    . .#4ddddddddfdfddfddffdfddfjEQh3XX",
" X@#3#.           &gQQ!QQ!QQQQQQQQQQQQQQQQQEVw1o. ",
"   XXX            @3ssssssssssssssssssssssw01@X   "
};
