/* XPM */
static char *result[] = {
/* columns rows colors chars-per-pixel */
"100 50 95 2 ",
"   c #000000",
".  c #010905",
"X  c #03060B",
"o  c #030A0C",
"O  c #03150E",
"+  c #04180F",
"@  c #040A12",
"#  c #060F19",
"$  c #051314",
"%  c #041C12",
"&  c #081A13",
"*  c #07131B",
"=  c #08121D",
"-  c #071B1A",
";  c #081C1F",
":  c #052316",
">  c #062619",
",  c #08221E",
"<  c #062C1C",
"1  c #0A281F",
"2  c #08301F",
"3  c #081522",
"4  c #0A1C27",
"5  c #0A1C29",
"6  c #0C1D31",
"7  c #092C22",
"8  c #0C222F",
"9  c #073321",
"0  c #093422",
"q  c #0A3A26",
"w  c #0B3E29",
"e  c #10372D",
"r  c #0D2135",
"t  c #0E223A",
"y  c #10243D",
"u  c #113A31",
"i  c #0C412B",
"p  c #0D482F",
"a  c #0E4C33",
"s  c #114E35",
"d  c #0F5135",
"f  c #105337",
"g  c #115439",
"h  c #125A3E",
"j  c #102641",
"k  c #122A43",
"l  c #142D4C",
"z  c #16314F",
"x  c #163253",
"c  c #193355",
"v  c #19365A",
"b  c #1B3B5F",
"n  c #1D3D63",
"m  c #1E3F6A",
"M  c #166343",
"N  c #186646",
"B  c #176847",
"V  c #196847",
"C  c #1A6C4B",
"Z  c #1D7751",
"A  c #1E7B54",
"S  c #227754",
"D  c #1F4370",
"F  c #20426E",
"G  c #224776",
"H  c #244979",
"J  c #24855D",
"K  c #268C62",
"L  c #279165",
"P  c #289266",
"I  c #299368",
"U  c #2B9A6C",
"Y  c #2EA272",
"T  c #30A374",
"R  c #30A877",
"E  c #32AC7A",
"W  c #35B37F",
"Q  c #274F84",
"!  c #284F84",
"~  c #275086",
"^  c #295186",
"/  c #2B558C",
"(  c #2C5790",
")  c #2E5A95",
"_  c #2F5C99",
"`  c #305D9A",
"'  c #32609F",
"]  c #3463A3",
"[  c #3566A9",
"{  c #3769AD",
"}  c #386AAF",
"|  c #3A6DB4",
" . c #3B6FB8",
".. c #37B581",
"X. c #38B683",
/* pixels */
"            X   @ X @ @ X @ @ @ @ @ X @ @ @ @ o @ @ X @ @ o @ @ X @ @ @ X @ @ @ @ @                   o X X                                                                                             ",
"          @ # 3 6 6 y j y y t t y y y y y y y y y y y y y y y y y y y y y y 5 3 = = X       @ * # # = 5 6 = #             @ o @ o @ @ o o @ X @ @ @ o @ o o @ @ o @ @ o @ o o @ @ o X X X X             ",
"      X * 5 l H ` ] [ ] ] ] ] ] ] ] ] ] ] ] ] ] ] ] ] ] ] ] ] ] ] ] ] ] ] ] t   X         X G ' ' ` ` ' ` ] ! X         = / ) ) ) ) ) ) ) ) ) ) ) ) ) ) ) ) ) ) ) ) ) ) ) ) ) ) ) ) / H x 6 3 @ X       ",
"    X 3 t Q } / n l j j k j k j j k j j j k k j k j k k k k k y k k j k k y #               y z x z x x z c k           @ v b n b b b b n b b b b b b n b b b b n b b b b n v n b n D Q ] ] n 6 # X     ",
"  X 3 j ' ' x 6 = * * - ; ; , , 7 ; ; 7 ; 7 , , ; , , , ; , , , , , , 1 , , o               $ ; ; ; - ; ; ; & X         . ; ; ; ; ; ; ; ; 4 ; ; ; ; 4 ; ; ; ; 4 ; ; 4 ; ; 4 ; ; * * 3 4 j D } Q 6 *     ",
"X # 6 ) _ j 3 $ $ % < w h V C C C V V C V C V V C C C C C C C C C C C C C C 1 X             q f s s s s s f i .         o w i w i i i i i i i i w w i i i w i i w i i i w i w 9 < % $ $ # 5 x } Q 6 #   ",
"X 3 v  .x 3 # + : p J R Y P K K K K K K K K K K K K K K K K K K K K J K K K e X           . S T T T T T Y T J .         , U T T T T T T T T T T T T T T T T T T T T Y T T T T Y L M 9 : @ * 5 v | x 3 X ",
"@ 5 / ) 6 # $ > h W L f 0 < > : : : : : : : : : : : : : : : : : : : : : : : * X             : 2 < < < 2 < 2 : .         . w w w i q w i w w q q w w w w w w w w w w w w w i i g A R I p : $ * 6 _ ~ 5 X ",
"# 5 ] H 5 $ : a W Z 0 : O . . . . . . . . . . . . . . . . . . . . . . . . . @ @                   .                       o O . o O . O . o o O . o O o . o O o o . . O o O O + : i L R p : * 5 H ' 6 X ",
"@ 6 ] H 4 - 7 P I 0 % .                                                     X                                               .             .     .       .         .           . O % q U K < - 4 H [ 6 X ",
"# 5 ] G 4 - w ..M > O                                                                                                                                                             O > h X.p 7 4 H ] 6 X ",
"# 6 ] H 4 , a X.d + .                                                                                                                                                             . : p ..h ; 4 H ] 6 X ",
"@ 6 ' H 4 , a X.a % .                                                                                                                                                             . + i W h , 4 G ] 6 X ",
"# 5 ' H 4 , a ..a + .                                                                                                                                                               + i W h 7 4 G ] 6 @ ",
"# 6 ] H 4 , a X.a % .                                                                                                                                                               + i W h > 4 H ] 6 X ",
"@ 6 ] H 4 , a X.a % .                                                                                                                                                             . + i W h , 4 H ] 6 X ",
"@ 6 ] H 4 , s X.a % .                                                                                                                                                             . O i ..h 7 4 G ] 6 @ ",
"# 6 ] H 4 ; p X.a % .                                                         .                                                                                                   . + i ..g 7 4 H ] 6 X ",
"@ 6 ' H 4 , a X.a % .                                                                                                                                                             . + i E h , 4 G ] 6 X ",
"@ 6 ' H 4 - a X.a + .                                                                                                                                                               $ w ..h 7 4 G ] 6 X ",
"# 6 ' H 4 , s X.a % .                                                                                                                                                               + i W h , 4 G [ 6 X ",
"@ 5 ] H 4 , p X.a % .                                                                                                                                                             . + i W h , 4 G ] 6 X ",
"# 5 ] H 4 , a X.a % .                                                                                                                                                             . + i W h 7 4 G ] 6 X ",
"# 6 ' H 4 , a X.a + .                                                                                                                                                             . + w W h , 4 H ] 6 X ",
"@ 6 ' H 4 , s X.a % .                                                                                                                                                             . + w W h , 4 H ] 6 X ",
"# 5 ] H 4 , p X.a % .                                                                                                                                                               + w W h , 5 G ] 6 X ",
"@ 6 ' H 4 , a X.a + .                                                                                                                                                             . + i W h > 4 H ] 6 X ",
"@ 6 ] H 4 - a X.a % .                                                                                                                                                             . + i W h 7 5 G [ 6 X ",
"@ r ] H 4 ; p X.a % .                                                                                                                                                             . + w W h > 4 G ] 6 X ",
"@ 6 ] H 4 , s X.a % .                                                                                                                                                               + w W h 7 4 H ] 6 X ",
"@ 6 ] H 4 , s X.d % .                                                                                                                                                             . $ w W h , 8 G ] 6 @ ",
"# 6 ' H 4 , p X.a % .                                                                                                                                                             . + w W h , 4 G ] 6 X ",
"# 6 ' H 4 , s X.a % .                                                       X                                                                                                     . + w W h , 4 G ] 6 X ",
"@ 5 ] H 4 , p X.a + .                                                       @                                                                                                       + w W h , 5 G [ 6 X ",
"@ 6 ] H 4 , a X.a % .                                                       @ .                                                                                                   . O i W h > 4 G ] 6 X ",
"# 6 ' H 4 , a X.a % .                                                       X X                                                                                                   . + i W h 7 5 G [ 6 X ",
"@ 6 ] H 4 , p X.a % .                                                       o X                 .                                                                                 . + w ..h 7 4 G ] 6 X ",
"@ 6 ] H 4 , a X.d % .                                                       @                 . .                                                                                 . + w W h , 4 G ] 6 X ",
"# 6 ] H 4 , a W d : .                                                       @ X                                                                                                   . % w W h , 4 H ] 6 X ",
"@ 5 ' H 4 - i W M : o                                                       X X   X           . .                                                                                 . % a X.g 7 4 G ] 6 @ ",
"# 5 ] H 3 - < P U 2 : . .   .                                               o X                                                                                                 . O : C W i : 4 G ] 6 X ",
"@ 6 ' H 5 * : a W A 2 : O . . . . . . . . . . . . . . . . . . . . . . . . . # o                                                   .   . .   .     .   .   .   .   . .     . . . O : a W A < * 5 H ] 6 X ",
"@ 5 / ` 6 * $ < h E I h q < > > : : : : : : : : : : : : : : : : : : : : , : - @             X X o o X X o X o .               . O O O + O O O O O O O O O O + + O O O O O O % : 0 h R K q % * 6 ^ _ 6 X ",
"X 3 v  .x 3 # O : i J T Y U L L L L L L L L L L L P P P L L L L L L L P I K u @             v ) ) ) ) ) ) ) ^ #               : M M M M M M M M M N M M M N M M M M M M M M B A U E Z 0 % $ 3 j } D 3 X ",
"  # 6 ( ' k 3 $ $ % > q g M N V N N N N N N N N N N N N N N N N N N V N N N 7 X             y n n n n n F b v o               0 P I I I I I I I P I I I I I I I I I I I I I L J B i < % $ * 6 ~ [ j # X ",
"  X = j _ ] c 6 3 * * - ; , , , , , ; 7 , , , , , 1 , , ; , , , , , , , , , @               $ 4 ; ; ; ; - 4 - .               O 7 < 7 7 7 7 7 7 7 7 7 7 7 7 7 7 7 7 7 7 7 7 7 7 , % * * 3 t Q } c 3 X   ",
"  X @ = 6 Q { ) F x k k k k k k k k k k k k k k k k k k k k k k k k k k k k #               > w w w e w w e q .               * 8 8 8 8 8 8 8 8 8 r 8 8 r 8 8 r 8 8 8 8 8 8 8 5 8 6 r k D ] ] x 5 @     ",
"      X # 5 k G ) ] ] ] ] ] ] ] ] ] ] ] ] ] ] ] ] ] ] ] ] ] ] ] ] ] ] ] ] ] y         .     V R T T T T T T U &               c ' ` ` ` _ ` ` ` _ ` ` _ _ _ _ _ ` ` _ ` ` ` ` ` _ ` ' [ _ m r 3 @       ",
"          @ # = 5 6 6 t 6 6 j 6 y y t t t t y t t y y 6 y t t t t y y y y y @         X X   > w w w w w w w q .               6 v v v v v v v v v v v v v v v v v v v v v v v v v v x j 5 * # X         ",
"              . X @ @ X # @ @ # X @ X @ @ X @ X X X @ @ X @ X @ X o X X X o X X       X X X . o o o o . . . .                 X X @ X X X @ X o @ X X X X @ o X o X X @ X X X @ X X X X X               "
};
