/* XPM */
static char *_649954692741[] = {
/* columns rows colors chars-per-pixel */
"50 50 105 2 ",
"   c #010000",
".  c #0D0405",
"X  c #0E0608",
"o  c #120605",
"O  c #1C0906",
"+  c #12070A",
"@  c #15080C",
"#  c #1D0A0B",
"$  c #1D0C12",
"%  c #220B07",
"&  c #220C0E",
"*  c #2E0F09",
"=  c #2F100D",
"-  c #31100C",
";  c #3D130C",
":  c #240E14",
">  c #2A0F12",
",  c #250F18",
"<  c #2D1112",
"1  c #271019",
"2  c #2C121D",
"3  c #311213",
"4  c #3E1412",
"5  c #32141B",
"6  c #3A161B",
"7  c #351622",
"8  c #391622",
"9  c #3B1827",
"0  c #3E1929",
"q  c #41140D",
"w  c #49170D",
"e  c #411614",
"r  c #421719",
"t  c #44191E",
"y  c #4C1B1F",
"u  c #541F14",
"i  c #562116",
"p  c #5A2116",
"a  c #61281D",
"s  c #431923",
"d  c #4C1C21",
"f  c #441B2B",
"g  c #501D22",
"h  c #4A1E30",
"j  c #532125",
"k  c #51222B",
"l  c #5B262E",
"z  c #5F292E",
"x  c #522334",
"c  c #5C2934",
"v  c #562539",
"b  c #59273C",
"n  c #5D2A3C",
"m  c #632A2F",
"M  c #6D3125",
"N  c #743327",
"B  c #7C3A2E",
"V  c #6E353A",
"C  c #7F3C34",
"Z  c #74383C",
"A  c #642E44",
"S  c #6E374E",
"D  c #6F384F",
"F  c #743941",
"G  c #7E3F44",
"H  c #803F3B",
"J  c #864133",
"K  c #8A4537",
"L  c #874538",
"P  c #89463C",
"I  c #8E493B",
"U  c #924C3F",
"Y  c #814041",
"T  c #8A4742",
"R  c #8A4944",
"E  c #84454D",
"W  c #8B4A4B",
"Q  c #924D43",
"!  c #934F4B",
"~  c #864653",
"^  c #87485A",
"/  c #88495E",
"(  c #934F53",
")  c #955153",
"_  c #96525D",
"`  c #99545C",
"'  c #A95D4E",
"]  c #A25B5F",
"[  c #844660",
"{  c #884A62",
"}  c #965364",
"|  c #9C5760",
" . c #975569",
".. c #98556D",
"X. c #995771",
"o. c #9E5B76",
"O. c #9F5C78",
"+. c #A15B63",
"@. c #AB636C",
"#. c #A96473",
"$. c #AB667B",
"%. c #AB6681",
"&. c #AD6883",
"*. c #B06987",
"=. c #B16A88",
/* pixels */
"o % * ; ; p B J K K P P P T P T P T T T T T T T R R R R R W R W W W W W W W W W W W W Z j e 4 < # @ ",
"% * ; i U ' U K K J K K P K P P P P P P P T P T T T T T R R R R R W R W W W W W W ( ( +.@.E d 6 > & ",
"* ; a ' J u w q q q ; q ; 4 q ; q ; q 4 e ; ; e e e 4 e e e e e e e e 4 4 e 6 e r r r y m +.] j 6 < ",
"; u ' N w q ; - * * * * * * * = = = = = = = = = = = = = * = 3 > = 3 < 3 < 3 3 3 3 3 4 6 t g ) ` t 5 ",
"; I K w q ; % % O O O O O O O O O O O O O O O O O O # % # # # O O # # O # # # # & & > > 4 s j @.Z 6 ",
"u ' p q * % O o o o . . . . . o . . . o . . . o . . . o . . . . . X . X . X X o . X + # > 6 s G | t ",
"M U w ; % O . .   .   .               .       .     .             .   .             o + & < s m @.g ",
"J U w - % . .                                                                         o # > 6 j #.l ",
"B I q * % .                                                                           . @ & 6 k @.l ",
"H U ; ; O .                                                                             o : 6 j @.l ",
"B U ; * O o                                                                           . + : 5 j @.c ",
"B U q * O o                                                                           . + & 6 k #.c ",
"J U ; - O . .                                                                         . + & 6 k @.l ",
"B U q = O .                                                                             + & 6 k #.c ",
"C Q ; - O . .                                                                         . + : 5 k #.l ",
"C Q ; - O .                                                                           . X : 6 k #.l ",
"C Q q - % o                                                                             + : 6 k #.c ",
"C Q q - O o                                                                           . + : 6 k #.c ",
"C Q e = # . .                                                                         . + : 7 k #.c ",
"C ! q - O .                                                                           . X : 6 k #.c ",
"C Q e * O o                                                                           . X : 8 k #.c ",
"C ! e = O .                                                                           . @ : 6 k $.c ",
"H ! e = O o                                                                             X : 7 k $.c ",
"H Q e = # o                                                                           . @ : 6 x $.b ",
"H Q e - % .                                                                           X X : 8 k #.c ",
"H Q e - # .                                                                             + : 8 x $.b ",
"H ! e = # o .                                                                         . + : 8 k $.c ",
"H Q e = O o                                                                           . + : 8 k $.c ",
"H ! e - # .                                                                           . + : 8 x $.n ",
"H ! e 3 # o                                                                           . + : 8 x $.n ",
"H ! e 3 O o                                                                           . + : 6 x $.n ",
"Y ! e - # o .                                                                           @ : 9 x $.c ",
"H ! 4 3 # o                                                                           . X : 7 x %.n ",
"L ( r 3 # X                                                                           . @ , 8 x %.n ",
"Y ! e = % X                                                                             @ : 8 x %.n ",
"Y ( r 3 & o                                                                           . X 1 8 x &.n ",
"Y ! r 3 % X .                                                                           @ , 7 x &.b ",
"Y ( e 3 # X                                                                           . + , 8 x &.n ",
"Y ) e 3 # .                                                                           X X 1 8 v &.n ",
"Y ( r 3 # o                                                                             @ 1 7 v &.n ",
"Y ) r 3 # X                                                                           X @ 1 9 v %.n ",
"Y ) r 3 & X .                                                                           @ 1 9 v *.n ",
"Y ` t 4 & o .                                                                       . X $ 2 0 b *.b ",
"V +.y 6 < # o .   .       .       .         .     .   .   .       X X     X     .   . @ $ 7 0 A =.v ",
"j @.m r 3 > # + + . X X + X X X . . . . . . . X X X X X X X X X X X X X X X X X X X @ $ 2 0 h [ O.f ",
"r ! ( y r 6 > : # $ # # # $ # # $ $ $ $ $ $ $ $ $ $ $ $ $ $ $ $ $ $ $ $ $ $ $ $ $ , 2 7 0 h b =.D 9 ",
"6 j @.Y d s r 5 5 3 < 5 3 2 5 5 3 5 5 < 5 5 5 5 5 5 2 5 5 5 5 5 7 2 7 7 7 7 7 7 7 7 0 0 h h %.X.h 7 ",
"3 6 m @.( z d d t s t t s t s t s s s s s s s s s s s f s s f f f f f 0 f 0 0 h 0 h h h S %.%.h 9 2 ",
"& 3 6 j ) @.+.` _ _ _ _ _ _ _ } _ } } } } } } } }  .}  . . . . . ...........X.X.X.X.o.%.*.[ h 9 2 $ ",
"@ & 3 6 s l F E E ~ E ~ ~ ~ ~ ~ ~ ~ ~ ~ ~ ^ ^ ^ ^ ^ ^ ^ ^ ^ / { [ ^ / { { { { { { { [ D x f 9 2 , @ "
};
